ffmpeg version 4.2.7-0ubuntu0.1 Copyright (c) 2000-2022 the FFmpeg developers
  built with gcc 9 (Ubuntu 9.4.0-1ubuntu1~20.04.1)
  configuration: --prefix=/usr --extra-version=0ubuntu0.1 --toolchain=hardened --libdir=/usr/lib/x86_64-linux-gnu --incdir=/usr/include/x86_64-linux-gnu --arch=amd64 --enable-gpl --disable-stripping --enable-avresample --disable-filter=resample --enable-avisynth --enable-gnutls --enable-ladspa --enable-libaom --enable-libass --enable-libbluray --enable-libbs2b --enable-libcaca --enable-libcdio --enable-libcodec2 --enable-libflite --enable-libfontconfig --enable-libfreetype --enable-libfribidi --enable-libgme --enable-libgsm --enable-libjack --enable-libmp3lame --enable-libmysofa --enable-libopenjpeg --enable-libopenmpt --enable-libopus --enable-libpulse --enable-librsvg --enable-librubberband --enable-libshine --enable-libsnappy --enable-libsoxr --enable-libspeex --enable-libssh --enable-libtheora --enable-libtwolame --enable-libvidstab --enable-libvorbis --enable-libvpx --enable-libwavpack --enable-libwebp --enable-libx265 --enable-libxml2 --enable-libxvid --enable-libzmq --enable-libzvbi --enable-lv2 --enable-omx --enable-openal --enable-opencl --enable-opengl --enable-sdl2 --enable-libdc1394 --enable-libdrm --enable-libiec61883 --enable-nvenc --enable-chromaprint --enable-frei0r --enable-libx264 --enable-shared
  libavutil      56. 31.100 / 56. 31.100
  libavcodec     58. 54.100 / 58. 54.100
  libavformat    58. 29.100 / 58. 29.100
  libavdevice    58.  8.100 / 58.  8.100
  libavfilter     7. 57.100 /  7. 57.100
  libavresample   4.  0.  0 /  4.  0.  0
  libswscale      5.  5.100 /  5.  5.100
  libswresample   3.  5.100 /  3.  5.100
  libpostproc    55.  5.100 / 55.  5.100
Routing option strict to both codec and muxer layer
[mov,mp4,m4a,3gp,3g2,mj2 @ 0x5620127c1c80] st: 0 edit list: 1 Missing key frame while searching for timestamp: 1000
[mov,mp4,m4a,3gp,3g2,mj2 @ 0x5620127c1c80] st: 0 edit list 1 Cannot find an index entry before timestamp: 1000.
[h264 @ 0x5620127c3980] Reinit context to 1920x1088, pix_fmt: yuvj420p
Input #0, mov,mp4,m4a,3gp,3g2,mj2, from '/var/www/html/project/media/video/original/MVI_2899.MP4':
  Metadata:
    major_brand     : mp42
    minor_version   : 1
    compatible_brands: mp42avc1CAEP
    make            : 
    make-eng        : 
    model           : 
    model-eng       : 
    creation_time   : 2025-10-22T07:39:32.000000Z
  Duration: 00:00:47.00, start: 0.000000, bitrate: 29977 kb/s
    Stream #0:0(eng): Video: h264 (High), 1 reference frame (avc1 / 0x31637661), yuvj420p(pc, bt709, left), 1920x1080 (1920x1088), 29675 kb/s, 25 fps, 25 tbr, 25k tbn, 50k tbc (default)
    Metadata:
      creation_time   : 2025-10-22T07:39:32.000000Z
    Stream #0:1(eng): Audio: aac (LC) (mp4a / 0x6134706D), 48000 Hz, stereo, fltp, 253 kb/s (default)
    Metadata:
      creation_time   : 2025-10-22T07:39:32.000000Z
Input #1, png_pipe, from '/var/www/html/project/static/images/templates/logo.png':
  Duration: N/A, bitrate: N/A
    Stream #1:0: Video: png, 1 reference frame, rgba(pc), 1920x1080 [SAR 2835:2835 DAR 16:9], 25 tbr, 25 tbn, 25 tbc
[Parsed_scale_0 @ 0x5620127c9200] w:1280 h:720 flags:'bilinear' interl:0
[Parsed_scale_2 @ 0x5620127deb00] w:1280 h:720 flags:'bilinear' interl:0
Stream mapping:
  Stream #0:0 (h264) -> scale (graph 0)
  Stream #1:0 (png) -> scale (graph 0)
  overlay (graph 0) -> Stream #0:0 (libx264)
  Stream #0:1 -> #0:1 (aac (native) -> aac (native))
Press [q] to stop, [?] for help
[graph_1_in_0_1 @ 0x562012baeb00] tb:1/48000 samplefmt:fltp samplerate:48000 chlayout:0x3
[h264 @ 0x5620127dc780] Reinit context to 1920x1088, pix_fmt: yuvj420p
[Parsed_scale_0 @ 0x562012c51900] w:1280 h:720 flags:'bilinear' interl:0
[Parsed_scale_2 @ 0x562013867040] w:1280 h:720 flags:'bilinear' interl:0
[graph 0 input from stream 0:0 @ 0x562013868780] w:1920 h:1080 pixfmt:yuvj420p tb:1/25000 fr:25/1 sar:0/1 sws_param:flags=2
[graph 0 input from stream 1:0 @ 0x562013869800] w:1920 h:1080 pixfmt:rgba tb:1/25 fr:25/1 sar:2835/2835 sws_param:flags=2
[swscaler @ 0x56201386e3c0] deprecated pixel format used, make sure you did set range correctly
[Parsed_scale_0 @ 0x562012c51900] w:1920 h:1080 fmt:yuvj420p sar:0/1 -> w:1280 h:720 fmt:yuvj420p sar:0/1 flags:0x2
[Parsed_setsar_1 @ 0x562012c50440] w:1280 h:720 sar:0/1 dar:16/9 -> sar:1/1 dar:16/9
[Parsed_scale_2 @ 0x562013867040] w:1920 h:1080 fmt:rgba sar:2835/2835 -> w:1280 h:720 fmt:yuva420p sar:1/1 flags:0x2
[Parsed_setsar_3 @ 0x562013867500] w:1280 h:720 sar:1/1 dar:16/9 -> sar:1/1 dar:16/9
[Parsed_overlay_4 @ 0x562013867a40] main w:1280 h:720 fmt:yuvj420p overlay w:1280 h:720 fmt:yuva420p
[Parsed_overlay_4 @ 0x562013867a40] [framesync @ 0x562013867ba8] Selected 1/25000 time base
[Parsed_overlay_4 @ 0x562013867a40] [framesync @ 0x562013867ba8] Sync level 2
[libx264 @ 0x562012818c00] using SAR=1/1
[libx264 @ 0x562012818c00] using cpu capabilities: MMX2 SSE2Fast SSSE3 SSE4.2 AVX FMA3 BMI2 AVX2
[libx264 @ 0x562012818c00] profile High, level 3.1
[libx264 @ 0x562012818c00] 264 - core 155 r2917 0a84d98 - H.264/MPEG-4 AVC codec - Copyleft 2003-2018 - http://www.videolan.org/x264.html - options: cabac=1 ref=1 deblock=1:0:0 analyse=0x3:0x113 me=hex subme=2 psy=1 psy_rd=1.00:0.00 mixed_ref=0 me_range=16 chroma_me=1 trellis=0 8x8dct=1 cqm=0 deadzone=21,11 fast_pskip=1 chroma_qp_offset=0 threads=22 lookahead_threads=5 sliced_threads=0 nr=0 decimate=1 interlaced=0 bluray_compat=0 constrained_intra=0 bframes=3 b_pyramid=2 b_adapt=1 b_bias=0 direct=1 weightb=1 open_gop=0 weightp=1 keyint=250 keyint_min=25 scenecut=40 intra_refresh=0 rc_lookahead=10 rc=crf mbtree=1 crf=18.0 qcomp=0.60 qpmin=0 qpmax=69 qpstep=4 ip_ratio=1.40 aq=1:1.00
Output #0, mp4, to '/var/www/html/project/media/video/watermarks/MVI_2899.mp4':
  Metadata:
    major_brand     : mp42
    minor_version   : 1
    compatible_brands: mp42avc1CAEP
    make            : 
    make-eng        : 
    model           : 
    model-eng       : 
    encoder         : Lavf58.29.100
    Stream #0:0: Video: h264 (libx264), 1 reference frame (avc1 / 0x31637661), yuvj420p(pc), 1280x720 [SAR 1:1 DAR 16:9], q=-1--1, 25 fps, 12800 tbn, 25 tbc (default)
    Metadata:
      encoder         : Lavc58.54.100 libx264
    Side data:
      cpb: bitrate max/min/avg: 0/0/0 buffer size: 0 vbv_delay: -1
    Stream #0:1(eng): Audio: aac (LC) (mp4a / 0x6134706D), 48000 Hz, stereo, fltp, delay 1024, 128 kb/s (default)
    Metadata:
      creation_time   : 2025-10-22T07:39:32.000000Z
      encoder         : Lavc58.54.100 aac
[Parsed_overlay_4 @ 0x562013867a40] [framesync @ 0x562013867ba8] Sync level 0
No more output streams to write to, finishing.
frame= 1175 fps=100 q=-1.0 Lsize=   88628kB time=00:00:46.99 bitrate=15448.6kbits/s speed=3.99x    
[AVIOContext @ 0x5620127c1b40] Statistics: 0 seeks, 24 writeouts
video:87850kB audio:742kB subtitle:0kB other streams:0kB global headers:0kB muxing overhead: 0.040389%
Input file #0 (/var/www/html/project/media/video/original/MVI_2899.MP4):
  Input stream #0:0 (video): 1175 packets read (174344690 bytes); 1175 frames decoded; 
  Input stream #0:1 (audio): 2203 packets read (1488607 bytes); 2203 frames decoded (2255872 samples); 
  Total: 3378 packets (175833297 bytes) demuxed
Input file #1 (/var/www/html/project/static/images/templates/logo.png):
  Input stream #1:0 (video): 1 packets read (111578 bytes); 1 frames decoded; 
  Total: 1 packets (111578 bytes) demuxed
Output file #0 (/var/www/html/project/media/video/watermarks/MVI_2899.mp4):
  Output stream #0:0 (video): 1175 frames encoded; 1175 packets muxed (89958748 bytes); 
  Output stream #0:1 (audio): 2203 frames encoded (2255872 samples); 2204 packets muxed (759930 bytes); 
  Total: 3379 packets (90718678 bytes) muxed
[AVIOContext @ 0x5620127c6f80] Statistics: 2 seeks, 350 writeouts
[libx264 @ 0x562012818c00] frame I:9     Avg QP:19.57  size:181661
[libx264 @ 0x562012818c00] frame P:378   Avg QP:22.13  size:121712
[libx264 @ 0x562012818c00] frame B:788   Avg QP:24.98  size: 53701
[libx264 @ 0x562012818c00] consecutive B-frames:  6.9%  7.0% 12.3% 73.9%
[libx264 @ 0x562012818c00] mb I  I16..4:  1.2%  3.9% 94.9%
[libx264 @ 0x562012818c00] mb P  I16..4:  0.6%  2.3% 18.0%  P16..4: 26.7% 20.9% 31.1%  0.0%  0.0%    skip: 0.4%
[libx264 @ 0x562012818c00] mb B  I16..4:  0.1%  0.7%  2.2%  B16..8: 21.5% 18.6% 11.5%  direct:35.6%  skip: 9.9%  L0:30.3% L1:33.7% BI:36.0%
[libx264 @ 0x562012818c00] 8x8 transform intra:13.0% inter:33.6%
[libx264 @ 0x562012818c00] coded y,uvDC,uvAC intra: 96.0% 84.4% 52.3% inter: 72.2% 24.9% 3.5%
[libx264 @ 0x562012818c00] i16 v,h,dc,p: 68%  8% 18%  5%
[libx264 @ 0x562012818c00] i8 v,h,dc,ddl,ddr,vr,hd,vl,hu: 13% 19% 12%  7% 10%  8% 13%  7% 12%
[libx264 @ 0x562012818c00] i4 v,h,dc,ddl,ddr,vr,hd,vl,hu: 12% 17%  9%  8% 13% 10% 13%  8% 12%
[libx264 @ 0x562012818c00] i8c dc,h,v,p: 50% 23% 17% 11%
[libx264 @ 0x562012818c00] Weighted P-Frames: Y:20.1% UV:5.0%
[libx264 @ 0x562012818c00] kb/s:15312.01
[aac @ 0x5620128387c0] Qavg: 233.872
[AVIOContext @ 0x5620127caa80] Statistics: 176084811 bytes read, 1 seeks
[AVIOContext @ 0x56201280fd00] Statistics: 111578 bytes read, 0 seeks
